# Blender v2.79 (sub 0) OBJ File: ''
# www.blender.org
mtllib present.mtl
o Stripe_4_Cube.004
v -1.027709 1.111268 0.977881
v -1.027709 0.911268 -0.962119
v -1.027709 0.911268 0.977881
v -1.027709 1.111268 -0.962119
v 1.032291 0.911268 -0.962119
v 1.032291 1.111268 -0.962119
v 1.032291 0.911268 0.977881
v 1.032291 1.111268 0.977881
v 1.000000 0.010147 1.000000
v -1.000000 0.010147 -1.000000
v 1.000000 0.010147 -1.000000
v -1.000000 2.010147 -1.000000
v 0.999999 2.010147 1.000001
v 1.000000 2.010147 -0.999999
v -1.000000 0.010147 1.000000
v -1.000000 2.010147 1.000000
v 0.011746 0.288697 -0.016959
v 0.437069 0.438043 0.292052
v -0.150709 0.438043 0.483036
v 0.735354 0.841478 0.508766
v 0.862394 0.762961 -0.016959
v -0.513983 0.438046 -0.016959
v -0.150709 0.438043 -0.516954
v 0.437069 0.438043 -0.325970
v 0.962804 1.288697 0.292054
v -0.264642 0.841477 0.833690
v 0.274615 0.762960 0.792053
v 0.011746 1.288697 0.983041
v -0.882680 0.841482 -0.016959
v -0.676443 0.762961 0.483038
v -0.939312 1.288697 0.292054
v -0.264642 0.841477 -0.867608
v -0.676443 0.762961 -0.516956
v -0.576039 1.288697 -0.825976
v 0.735354 0.841478 -0.542684
v 0.274615 0.762960 -0.825971
v 0.599532 1.288697 -0.825976
v 0.599532 1.288697 0.792058
v -0.576039 1.288697 0.792058
v -0.939312 1.288697 -0.325972
v 0.011746 1.288697 -1.016959
v 0.962804 1.288697 -0.325972
v 0.288134 1.735917 0.833690
v 0.699936 1.814433 0.483038
v 0.174202 2.139352 0.483036
v -0.711861 1.735917 0.508766
v -0.251123 1.814435 0.792053
v -0.413576 2.139351 0.292052
v -0.711861 1.735917 -0.542684
v -0.838902 1.814433 -0.016959
v -0.413576 2.139351 -0.325970
v 0.288134 1.735917 -0.867608
v -0.251123 1.814435 -0.825971
v 0.174202 2.139352 -0.516954
v 0.906173 1.735913 -0.016959
v 0.699936 1.814433 -0.516956
v 0.537476 2.139349 -0.016959
v 0.011746 2.288697 -0.016959
v -1.030000 1.990877 0.102877
v -1.030000 0.050877 -0.097124
v -1.030000 0.050877 0.102877
v -1.030000 1.990877 -0.097124
v 1.030000 0.050877 -0.097124
v 1.030000 1.990877 -0.097124
v 1.030000 0.050877 0.102877
v 1.030000 1.990877 0.102877
v -0.082565 1.982436 1.020907
v -0.082565 0.042436 -1.039093
v -0.082565 0.042436 1.020907
v -0.082565 1.982436 -1.039093
v 0.117435 0.042436 -1.039093
v 0.117435 1.982436 -1.039093
v 0.117435 0.042436 1.020907
v 0.117435 1.982436 1.020907
v -0.973790 1.122276 1.028726
v -0.973790 0.922276 -1.031274
v -0.973790 0.922276 1.028726
v -0.973790 1.122276 -1.031274
v 0.966210 0.922276 -1.031274
v 0.966210 1.122276 -1.031274
v 0.966210 0.922276 1.028726
v 0.966210 1.122276 1.028726
vn -1.0000 0.0000 0.0000
vn 0.0000 0.0000 -1.0000
vn 1.0000 0.0000 0.0000
vn 0.0000 -0.0000 1.0000
vn 0.0000 -1.0000 -0.0000
vn 0.0000 1.0000 0.0000
vn 0.1024 -0.9435 0.3151
vn 0.7002 -0.6617 0.2680
vn -0.2680 -0.9435 0.1947
vn -0.2680 -0.9435 -0.1947
vn 0.1024 -0.9435 -0.3151
vn 0.9050 -0.3304 0.2680
vn 0.0247 -0.3304 0.9435
vn -0.8897 -0.3304 0.3151
vn -0.5746 -0.3304 -0.7488
vn 0.5346 -0.3304 -0.7779
vn 0.8026 -0.1256 0.5831
vn -0.3066 -0.1256 0.9435
vn -0.9921 -0.1256 0.0000
vn -0.3066 -0.1256 -0.9435
vn 0.8026 -0.1256 -0.5831
vn 0.4089 0.6617 0.6284
vn -0.4713 0.6617 0.5831
vn -0.7002 0.6617 -0.2680
vn 0.0385 0.6617 -0.7488
vn 0.7240 0.6617 -0.1947
vn 0.2680 0.9435 -0.1947
vn 0.4911 0.7947 -0.3568
vn 0.4089 0.6617 -0.6284
vn -0.1024 0.9435 -0.3151
vn -0.1876 0.7947 -0.5773
vn -0.4713 0.6617 -0.5831
vn -0.3313 0.9435 0.0000
vn -0.6071 0.7947 0.0000
vn -0.7002 0.6617 0.2680
vn -0.1024 0.9435 0.3151
vn -0.1876 0.7947 0.5773
vn 0.0385 0.6617 0.7488
vn 0.2680 0.9435 0.1947
vn 0.4911 0.7947 0.3568
vn 0.7240 0.6617 0.1947
vn 0.8897 0.3304 -0.3151
vn 0.7947 0.1876 -0.5773
vn 0.5746 0.3304 -0.7488
vn -0.0247 0.3304 -0.9435
vn -0.3035 0.1876 -0.9342
vn -0.5346 0.3304 -0.7779
vn -0.9050 0.3304 -0.2680
vn -0.9822 0.1876 0.0000
vn -0.9050 0.3304 0.2680
vn -0.5346 0.3304 0.7779
vn -0.3035 0.1876 0.9342
vn -0.0247 0.3304 0.9435
vn 0.5746 0.3304 0.7488
vn 0.7947 0.1876 0.5773
vn 0.8897 0.3304 0.3151
vn 0.3066 0.1256 -0.9435
vn 0.3035 -0.1876 -0.9342
vn 0.0247 -0.3304 -0.9435
vn -0.8026 0.1256 -0.5831
vn -0.7947 -0.1876 -0.5773
vn -0.8897 -0.3304 -0.3151
vn -0.8026 0.1256 0.5831
vn -0.7947 -0.1876 0.5773
vn -0.5746 -0.3304 0.7488
vn 0.3066 0.1256 0.9435
vn 0.3035 -0.1876 0.9342
vn 0.5346 -0.3304 0.7779
vn 0.9921 0.1256 0.0000
vn 0.9822 -0.1876 0.0000
vn 0.9050 -0.3304 -0.2680
vn 0.4713 -0.6617 -0.5831
vn 0.1876 -0.7947 -0.5773
vn -0.0385 -0.6617 -0.7488
vn -0.4089 -0.6617 -0.6284
vn -0.4911 -0.7947 -0.3568
vn -0.7240 -0.6617 -0.1947
vn -0.7240 -0.6617 0.1947
vn -0.4911 -0.7947 0.3568
vn -0.4089 -0.6617 0.6284
vn 0.7002 -0.6617 -0.2680
vn 0.6071 -0.7947 -0.0000
vn 0.3313 -0.9435 -0.0000
vn -0.0385 -0.6617 0.7488
vn 0.1876 -0.7947 0.5773
vn 0.4713 -0.6617 0.5831
usemtl Green
s 1
f 1//1 2//1 3//1
f 4//2 5//2 2//2
f 6//3 7//3 5//3
f 8//4 3//4 7//4
f 5//5 3//5 2//5
f 4//6 8//6 6//6
f 1//1 4//1 2//1
f 4//2 6//2 5//2
f 6//3 8//3 7//3
f 8//4 1//4 3//4
f 5//5 7//5 3//5
f 4//6 1//6 8//6
f 17//7 18//7 19//7
f 20//8 18//8 21//8
f 17//9 19//9 22//9
f 17//10 22//10 23//10
f 17//11 23//11 24//11
f 20//12 21//12 25//12
f 26//13 27//13 28//13
f 29//14 30//14 31//14
f 32//15 33//15 34//15
f 35//16 36//16 37//16
f 20//17 25//17 38//17
f 26//18 28//18 39//18
f 29//19 31//19 40//19
f 32//20 34//20 41//20
f 35//21 37//21 42//21
f 43//22 44//22 45//22
f 46//23 47//23 48//23
f 49//24 50//24 51//24
f 52//25 53//25 54//25
f 55//26 56//26 57//26
f 57//27 54//27 58//27
f 57//28 56//28 54//28
f 56//29 52//29 54//29
f 54//30 51//30 58//30
f 54//31 53//31 51//31
f 53//32 49//32 51//32
f 51//33 48//33 58//33
f 51//34 50//34 48//34
f 50//35 46//35 48//35
f 48//36 45//36 58//36
f 48//37 47//37 45//37
f 47//38 43//38 45//38
f 45//39 57//39 58//39
f 45//40 44//40 57//40
f 44//41 55//41 57//41
f 42//42 56//42 55//42
f 42//43 37//43 56//43
f 37//44 52//44 56//44
f 41//45 53//45 52//45
f 41//46 34//46 53//46
f 34//47 49//47 53//47
f 40//48 50//48 49//48
f 40//49 31//49 50//49
f 31//50 46//50 50//50
f 39//51 47//51 46//51
f 39//52 28//52 47//52
f 28//53 43//53 47//53
f 38//54 44//54 43//54
f 38//55 25//55 44//55
f 25//56 55//56 44//56
f 37//57 41//57 52//57
f 37//58 36//58 41//58
f 36//59 32//59 41//59
f 34//60 40//60 49//60
f 34//61 33//61 40//61
f 33//62 29//62 40//62
f 31//63 39//63 46//63
f 31//64 30//64 39//64
f 30//65 26//65 39//65
f 28//66 38//66 43//66
f 28//67 27//67 38//67
f 27//68 20//68 38//68
f 25//69 42//69 55//69
f 25//70 21//70 42//70
f 21//71 35//71 42//71
f 24//72 36//72 35//72
f 24//73 23//73 36//73
f 23//74 32//74 36//74
f 23//75 33//75 32//75
f 23//76 22//76 33//76
f 22//77 29//77 33//77
f 22//78 30//78 29//78
f 22//79 19//79 30//79
f 19//80 26//80 30//80
f 21//81 24//81 35//81
f 21//82 18//82 24//82
f 18//83 17//83 24//83
f 19//84 27//84 26//84
f 19//85 18//85 27//85
f 18//86 20//86 27//86
f 59//1 60//1 61//1
f 62//2 63//2 60//2
f 64//3 65//3 63//3
f 66//4 61//4 65//4
f 63//5 61//5 60//5
f 62//6 66//6 64//6
f 59//1 62//1 60//1
f 62//2 64//2 63//2
f 64//3 66//3 65//3
f 66//4 59//4 61//4
f 63//5 65//5 61//5
f 62//6 59//6 66//6
f 67//1 68//1 69//1
f 70//2 71//2 68//2
f 72//3 73//3 71//3
f 74//4 69//4 73//4
f 71//5 69//5 68//5
f 70//6 74//6 72//6
f 67//1 70//1 68//1
f 70//2 72//2 71//2
f 72//3 74//3 73//3
f 74//4 67//4 69//4
f 71//5 73//5 69//5
f 70//6 67//6 74//6
f 75//1 76//1 77//1
f 78//2 79//2 76//2
f 80//3 81//3 79//3
f 82//4 77//4 81//4
f 79//5 77//5 76//5
f 78//6 82//6 80//6
f 75//1 78//1 76//1
f 78//2 80//2 79//2
f 80//3 82//3 81//3
f 82//4 75//4 77//4
f 79//5 81//5 77//5
f 78//6 75//6 82//6
usemtl Red
f 9//5 10//5 11//5
f 12//6 13//6 14//6
f 14//3 9//3 11//3
f 13//4 15//4 9//4
f 15//1 12//1 10//1
f 11//2 12//2 14//2
f 9//5 15//5 10//5
f 12//6 16//6 13//6
f 14//3 13//3 9//3
f 13//4 16//4 15//4
f 15//1 16//1 12//1
f 11//2 10//2 12//2
