mtllib New_Grass.mtl
o 20_grass_3
v -0.14046 -0.227354 0.028889
v -0.017146 2.167822 -0.020668
v 0.008774 -0.20811 -0.286
v 0.207279 -0.233263 -6.5E-5
v -0.385941 -0.07944 -0.244581
v -0.607547 1.637201 -0.546955
v -0.275919 -0.081629 -0.470707
v -0.138519 -0.039054 -0.264428
v 0.120835 -0.227202 0.333254
v 0.503717 1.405554 1.10946
v 0.106238 -0.080087 0.110891
v 0.33786 -0.192581 0.181586
v -0.070392 -0.133663 0.225102
v -0.593138 1.74494 0.435899
v -0.138327 0.017689 -0.039292
v 0.110779 -0.042493 0.051417
v -0.339047 -0.098237 0.050847
v -1.366495 1.427346 -0.039007
v -0.407964 -0.132283 -0.204871
v -0.190658 0.010011 -0.142968
v -0.193832 -0.27355 0.004239
v -0.150388 1.493323 -0.562439
v 0.071194 -0.263558 -0.026783
v -0.038405 -0.197161 0.207484
vn -0.9039 0.037721 -0.426077
vn 0.822275 0.072013 -0.564515
vn 0.083239 0.01633 0.996396
vn -0.883643 -0.189479 -0.428105
vn 0.812304 0.131518 -0.568212
vn 0.049519 0.179456 0.982519
vn -0.974912 0.150771 0.16375
vn 0.443948 0.415009 -0.794152
vn 0.556854 -0.45952 0.691921
vn -0.957086 -0.276176 0.087823
vn 0.393105 0.33869 -0.854844
vn 0.661634 0.100733 0.743029
vn -0.802509 -0.523629 0.285994
vn 0.148792 0.194556 -0.969541
vn 0.582629 0.432901 0.687852
vn -0.099618 -0.30166 -0.948197
vn 0.905588 0.224027 0.36017
vn -0.813098 0.195815 0.548204
usemtl mat.0
f 1//1 2//1 3//1
f 3//2 2//2 4//2
f 4//3 2//3 1//3
f 5//4 6//4 7//4
f 7//5 6//5 8//5
f 8//6 6//6 5//6
f 9//7 10//7 11//7
f 11//8 10//8 12//8
f 12//9 10//9 9//9
f 13//10 14//10 15//10
f 15//11 14//11 16//11
f 16//12 14//12 13//12
f 17//13 18//13 19//13
f 19//14 18//14 20//14
f 20//15 18//15 17//15
f 21//16 22//16 23//16
f 23//17 22//17 24//17
f 24//18 22//18 21//18

